<svg xmlns="http://www.w3.org/2000/svg" viewBox="0 0 348 190"><defs><style>.a{fill:#eab886;}.b{fill:#f7cfa8;}.c{fill:#c38d9e;}.d{fill:#d8d5d9;}.e{fill:#eae9eb;}.f{fill:#212121;}.g{fill:#3d3d3d;}.h{fill:#f2988f;}.i{fill:#8f4b61;}.j{fill:#b38b67;}.k{fill:#c89f73;}.l{fill:#8e3e3a;}.m{fill:#306a4c;}</style></defs><path class="a" d="M261.46,224c3.18-.2,24-4.52,26.38-8.47,1.47-2.5,7.9,11.32,1.78,11.41-.28,0-3.18.11-4.29.18.51.37,1,.89,1.48,1.23-3.42,0-10.55-1.07-10.67-1.06.59.3,1.15.63,1.69.92-1.57-.1-7.9-.72-7.9-.72s-7.91,1.86-10.53,1.87C253.49,229.32,254.06,224.42,261.46,224Z" transform="translate(-33.19 -46.8)"/><path class="b" d="M255.39,232.07c3.18-1.56,5.05.33,12.43-2.29,1.72-.6,10.82-4.49,13.13-5.64.47-.23-2.89-6.74-2.5-9.32,0,0,0,0,0,0-.12.48-.08,1.82-.25,2.39-1.15-2.26-2.12-8.08-1.43-10-.21,0-.3.36-.54.44-.32-2.43.67-6.12,1.52-8.75-1.87-5.17-7.53-4.79-11.85-6.88-3.15-1.53-4.35-2.93-3.46-5.63.26-.79.91.93,4.29,1.58,1,.19.71.23-.95-.56-2.16-1-3-1.79-3.36-2.9s.05-5.51.59-6.2,2.58-.09,4.6.47c8.32,2.47,5.79-.1,10.59-.73.34,0,8.28,0,12.82,3.49,2.61,2,6.57,7.36,8.51,11.61-.35,0-1.4-.84-1.79-.83,1.45,1.61,2.86,1.2,6,4.29-.28.11-1.27-.43-1.61-.26.21.2,12.93,7,17.69,7.38s17.88-.85,25.13.79a19.27,19.27,0,0,1,15.25,16.17,15.27,15.27,0,0,0,9.32-.75,6.08,6.08,0,0,0,3.09-2.45c.59-.87.62,1.66.66,1.7.44.56,2.53-2,2.94-3.49a8.83,8.83,0,0,0,.23-4.27,10.53,10.53,0,0,1,3.91,7.27c.29-.51.65-.52.88-1.08.69,6-4.41,8-9.23,8.35,1,.07,2.1.31,3,.3-2,2.61-15.68,2.3-16.56,2.11-1,.32-3.62,1.41-2.37,4.77,1.69,4.56-14.27,3.72-17.84,3.7-3.24,0-5.82-.63-4.17-3.23,1.85-2.93,8-.09,10.63-1.92-8.07.44-16.83-3.48-17.64-3.12-1.56.69-5.08,4.14-17.93,4.1-3.13,0-6,.1-8.61.19-.09.1,1.29.45,1.64.79-2.07,1-8,2.05-8,2.05a7,7,0,0,0,2.49,1,32.81,32.81,0,0,1-11.91-1.06c-.1,0,.15.26,0,.53-2.62-.09-11.05-1.62-11.05-1.62s-11.89,2.07-14.68,2.31C255.41,237.19,249.08,235.16,255.39,232.07Z" transform="translate(-33.19 -46.8)"/><path d="M276.51,184.16a10,10,0,0,0-.74-1.77,4.24,4.24,0,0,0-.82-1,2.68,2.68,0,0,0-.9.75c-.19.37-.3.4,0,.78C274.58,183.74,276.51,184.16,276.51,184.16Z" transform="translate(-33.19 -46.8)"/><path d="M266.13,178.59c.28.48-.55,1.62-1.22,2s-2.29-.85-2.45-1.29-.19-1.62.49-1.72A4.86,4.86,0,0,1,266.13,178.59Z" transform="translate(-33.19 -46.8)"/><path class="a" d="M279.53,178.72c2-1.2,12.41,2.09,13.05,3.62.11.26,1.67,5.79,0,7.83a3,3,0,0,0-.3-.69c0,.13-1.73,6.62-4.75,6.93.06-.21.1-.43.14-.64-3.79,1.11-7.9-1.07-6.77-4.5C282.72,185.87,277.53,179.93,279.53,178.72Z" transform="translate(-33.19 -46.8)"/><path class="c" d="M301.8,194.76c.73.73-7.27,5-14.16,6.45a48.15,48.15,0,0,1-11.07,1.4s-.2-2.9.9-3c1.51-.17,4.79.89,13.55-1.65A34.19,34.19,0,0,0,300,193.6,6,6,0,0,1,301.8,194.76Z" transform="translate(-33.19 -46.8)"/><path class="d" d="M171,236.06a.65.65,0,0,0,.12.57.66.66,0,0,0,.52.26h5.31a.66.66,0,0,0,.64-.49l25.35-88.22H192.47Z" transform="translate(-33.19 -46.8)"/><path class="e" d="M209,148.18l22.26,88.14a.73.73,0,0,0,.72.56h5.14a.75.75,0,0,0,.74-.9l-18.42-87.8Z" transform="translate(-33.19 -46.8)"/><path class="d" d="M209,148.18l22.26,88.14a.73.73,0,0,0,.72.56h2.59l-22.5-88.7Z" transform="translate(-33.19 -46.8)"/><path class="e" d="M171,236.06a.65.65,0,0,0,.12.57.66.66,0,0,0,.52.26h2.32l21.6-88.71h-3.07Z" transform="translate(-33.19 -46.8)"/><rect class="f" x="71.91" y="146.27" width="4.13" height="17.17"/><rect class="f" x="49.85" y="182.82" width="4.92" height="7.27" rx="0.37"/><rect class="g" x="49.85" y="182.82" width="4.92" height="3.89" rx="0.37"/><path class="f" d="M86.94,229.61a1.48,1.48,0,1,1-1.48-1.47A1.48,1.48,0,0,1,86.94,229.61Z" transform="translate(-33.19 -46.8)"/><rect class="f" x="36.62" y="182.82" width="4.92" height="7.27" rx="0.37"/><rect class="g" x="36.62" y="182.82" width="4.92" height="3.89" rx="0.37"/><path class="f" d="M73.71,229.61a1.48,1.48,0,1,1-1.47-1.47A1.47,1.47,0,0,1,73.71,229.61Z" transform="translate(-33.19 -46.8)"/><rect class="f" x="93.14" y="182.82" width="4.92" height="7.27" rx="0.37"/><rect class="g" x="93.14" y="182.82" width="4.92" height="3.89" rx="0.37"/><path class="f" d="M127.35,229.61a1.48,1.48,0,1,0,1.48-1.47A1.48,1.48,0,0,0,127.35,229.61Z" transform="translate(-33.19 -46.8)"/><rect class="f" x="106.36" y="182.82" width="4.92" height="7.27" rx="0.37"/><rect class="g" x="106.36" y="182.82" width="4.92" height="3.89" rx="0.37"/><path class="f" d="M140.58,229.61a1.47,1.47,0,1,0,1.47-1.47A1.47,1.47,0,0,0,140.58,229.61Z" transform="translate(-33.19 -46.8)"/><path class="f" d="M144.5,227.76v.76a.34.34,0,0,1-.11.23.38.38,0,0,1-.26.11l-2.59-.06L107.05,228,70,228.86a.45.45,0,0,1-.27-.1.38.38,0,0,1-.11-.26l0-.74a2.32,2.32,0,0,1,.64-1.66,2.36,2.36,0,0,1,1.63-.73l35.19-.8,34.48.79h.71a2.36,2.36,0,0,1,1.63.73A2.26,2.26,0,0,1,144.5,227.76Z" transform="translate(-33.19 -46.8)"/><path class="g" d="M110.75,224.63h-7.26V210.56a.38.38,0,0,1,.39-.39h6.48a.38.38,0,0,1,.39.39Z" transform="translate(-33.19 -46.8)"/><rect class="f" x="71.5" y="182.82" width="4.92" height="7.27" rx="0.37"/><rect class="g" x="71.5" y="182.82" width="4.92" height="3.89" rx="0.37"/><path class="f" d="M108.59,229.61a1.47,1.47,0,1,1-1.47-1.47A1.47,1.47,0,0,1,108.59,229.61Z" transform="translate(-33.19 -46.8)"/><path class="f" d="M109.61,229.14v-2.08a1.33,1.33,0,0,0-1.32-1.33H106a1.33,1.33,0,0,0-1.33,1.33v2.08Z" transform="translate(-33.19 -46.8)"/><path class="g" d="M102.88,93.64A4.67,4.67,0,0,1,107.49,99a94.65,94.65,0,0,0-.86,22.54c2.28,25.46,12.07,26.4,5.51,55-4.94,5.52-32.74,10.56-42.3,4.51a3.24,3.24,0,0,1-1.64-2.89c0-15.23,5.38-16.4,2.81-26.84-6.46-26.21-5.51-33.24-2.74-51,.66-4.23,2.84-6.73,4.62-6.73Z" transform="translate(-33.19 -46.8)"/><path class="f" d="M68.27,100.37a11.6,11.6,0,0,1,1.63-4.54h.46s2.07,0,1.12,2.82a51.44,51.44,0,0,0-1.68,6.58c-2.14,14.45-2.35,22.47,3.48,46.16,2.58,10.43-2.86,11.61-2.8,26.84a3.26,3.26,0,0,0,1.64,2.89c2.86,1.81,7.36,2.62,12.39,2.74-5.94.11-11.39-.65-14.67-2.74a3.26,3.26,0,0,1-1.64-2.89c-.06-15.23,5.38-16.41,2.8-26.84C64.55,125.18,65.5,118.14,68.27,100.37Z" transform="translate(-33.19 -46.8)"/><rect class="g" x="70.29" y="137.79" width="7.27" height="8.48" rx="0.39"/><path class="f" d="M69.82,176a2.11,2.11,0,0,1,1.49-.62h38.41l.41,0v0h30.42a14.21,14.21,0,0,1,5.35,1.05l1.67.67a2.8,2.8,0,0,1,1.74,2.59V181a6.66,6.66,0,0,1-1.23,3.86,10.28,10.28,0,0,1-8.83,4.31H116.32a26.58,26.58,0,0,1-6.88-.91l-6.71-1.81c-10.72-.76-21.36-1.5-32.23-1.84a2.06,2.06,0,0,1-1.13-1.84l-.17-5.21A2.15,2.15,0,0,1,69.82,176Z" transform="translate(-33.19 -46.8)"/><path class="h" d="M115.5,102.05a3.21,3.21,0,0,0,.1.81l9.12,32.74a11.38,11.38,0,0,0,11,8.42h28.72a3.11,3.11,0,1,0,0-6.22H135.7a5.15,5.15,0,0,1-5-3.81l-9.11-32.74a3.11,3.11,0,0,0-6.12.8Z" transform="translate(-33.19 -46.8)"/><path class="h" d="M172.52,132.53a8.18,8.18,0,0,1,2.49,1.28l2.62,2a1.13,1.13,0,0,1,.22,1.59l-.13.15a.71.71,0,0,0-.24.56.77.77,0,0,0,.29.55l.06,0a1.14,1.14,0,0,1-1.21,1.92l-.17-.11a.26.26,0,0,0-.24,0,.23.23,0,0,0-.12.2,1.16,1.16,0,0,1-.23.63,1.14,1.14,0,0,1-1.6.21.28.28,0,0,0-.25,0,.27.27,0,0,0-.15.21.93.93,0,0,1-1.5.62l-1.84-1.46a1,1,0,0,0-.77-.21,1,1,0,0,0-.69.4c-1.64,2.21-3.8,3.42-5.37,2.82-2-.76-2.3-4.13-.68-7.52C166.11,129.86,166.24,130.57,172.52,132.53Z" transform="translate(-33.19 -46.8)"/><path class="i" d="M121.28,127.34l-.81-3a.53.53,0,0,1,.37-.65l.12,0,7.06-1.88.11,0a.52.52,0,0,1,.64.37l.81,3a.53.53,0,0,1-.38.65l-.1,0L122,127.69l-.11,0A.53.53,0,0,1,121.28,127.34Z" transform="translate(-33.19 -46.8)"/><path class="c" d="M115.1,103a3.66,3.66,0,1,1,7.07-1.88L128,121.76,121,123.64Z" transform="translate(-33.19 -46.8)"/><path class="h" d="M117.19,165.45a4,4,0,0,1,1.11-.19l47-1.95a17.84,17.84,0,0,1,17.74,12.48l13.36,42.69a4.29,4.29,0,0,1-8.19,2.56l-13.36-42.69a9.24,9.24,0,0,0-9.2-6.48l-47,1.95a4.28,4.28,0,0,1-1.46-8.37Z" transform="translate(-33.19 -46.8)"/><path d="M185,224.36l2.15,1.45a6.28,6.28,0,0,1,1.14,1l-.82,9.75a.48.48,0,0,1-.47.43h-.78a.46.46,0,0,1-.46-.43l-.54-5.64a35.36,35.36,0,0,0-.66-4.1l-.88-3.88h0A4,4,0,0,0,185,224.36Z" transform="translate(-33.19 -46.8)"/><path d="M185.18,216.31a1.93,1.93,0,0,1,1.87,1.46,6,6,0,0,0,1.74,2.92l1.72,1.6a26,26,0,0,1,4.12,4.94l2.3,3.63a2.68,2.68,0,0,0,2.25,1.22h4.38a2.45,2.45,0,0,1,0,4.89H196a2.61,2.61,0,0,1-2.33-1.45l-1.34-2.7a18.19,18.19,0,0,0-1.46-2.43l-2.08-2.95a5.64,5.64,0,0,0-.54-.65,6.28,6.28,0,0,0-1.14-1L185,224.36a4,4,0,0,1-1.31-1.44h0a4.18,4.18,0,0,1,.09-4.24Z" transform="translate(-33.19 -46.8)"/><path class="h" d="M199.18,232.08a2.68,2.68,0,0,1-2.25-1.22l-2.3-3.63a26,26,0,0,0-4.12-4.94l-1.72-1.6a6,6,0,0,1-1.74-2.92,1.93,1.93,0,0,0-1.87-1.46l.25-.39a6.35,6.35,0,0,1,2.31-2.81,5,5,0,0,1,3.57-1.08c6.6,1.21,8.48,17.77,10.06,19.21l1.54.84h-3.73Z" transform="translate(-33.19 -46.8)"/><path class="h" d="M149.55,164.42a9.45,9.45,0,0,1,4,12.8L132.21,218a4.28,4.28,0,1,1-7.58-4L146,173.24a.92.92,0,0,0-.85-1.35l-48.29,2a4.27,4.27,0,1,1-.35-8.54l48.29-2A9.47,9.47,0,0,1,149.55,164.42Z" transform="translate(-33.19 -46.8)"/><path d="M119.87,217.15l1.3,2.25a6.48,6.48,0,0,1,.6,1.38l-5,8.41a.48.48,0,0,1-.61.18l-.7-.34a.47.47,0,0,1-.23-.59l2-5.31a34.84,34.84,0,0,0,1.2-4l.9-3.88h0A4.12,4.12,0,0,0,119.87,217.15Z" transform="translate(-33.19 -46.8)"/><path d="M123.61,210a1.92,1.92,0,0,1,1,2.13,6,6,0,0,0,.29,3.39l.84,2.19a25.87,25.87,0,0,1,1.54,6.25l.49,4.26a2.66,2.66,0,0,0,1.48,2.09l.46.22,2.9,1.41.59.29a2.44,2.44,0,0,1,1.12,3.26,2.44,2.44,0,0,1-3.26,1.13l-5.92-2.88-.89-.43a2.61,2.61,0,0,1-1.46-2.33l0-3a18,18,0,0,0-.24-2.83l-.58-3.55a7.72,7.72,0,0,0-.2-.83,6.48,6.48,0,0,0-.6-1.38l-1.3-2.25a4.12,4.12,0,0,1-.55-1.86h0a4.2,4.2,0,0,1,2-3.77Z" transform="translate(-33.19 -46.8)"/><path class="h" d="M129.28,230.33a2.66,2.66,0,0,1-1.48-2.09l-.49-4.26a25.87,25.87,0,0,0-1.54-6.25l-.84-2.19a6,6,0,0,1-.29-3.39,1.92,1.92,0,0,0-1-2.13l.39-.24a6.34,6.34,0,0,1,3.3-1.51,5,5,0,0,1,3.69.58c5.4,4-.16,19.7.63,21.68l1,1.43-2.9-1.41Z" transform="translate(-33.19 -46.8)"/><path class="j" d="M92.25,81.11c.35,4.47.34,11.51-6.65,12.87,1.82.35,11.14-1.48,9.5-11.87C93.7,80.2,92.25,81.11,92.25,81.11Z" transform="translate(-33.19 -46.8)"/><path class="j" d="M100.31,87.86c-1.33,2.33-3.91,4-9.11,3.26-3.3-.45-7.76-2.5-8.58-6.46a8.7,8.7,0,0,1,2-7.85s-4,7.79,6.24,10.83C97.11,89.5,100.31,87.86,100.31,87.86Z" transform="translate(-33.19 -46.8)"/><path class="j" d="M95.91,78.21c-2.09-2-10.37-3.45-9.08,4.45s9.89,6.56,11.25,5.93S100.65,82.68,95.91,78.21Z" transform="translate(-33.19 -46.8)"/><path class="j" d="M94.42,76.08C98.1,75.22,106,78.71,103.9,85S90,87.47,89.54,82.19,94.42,76.08,94.42,76.08Z" transform="translate(-33.19 -46.8)"/><path class="k" d="M94.14,75.18c-1.45-1.57-4.49-.7-5.57,2.44-1.38,4-1,9.24,5.45,11.38,1.38.46,7.73,1.62,9.88-4-6.84,4.8-11.15-.56-11.81-2.33-1.31-3.51.64-5.94,2.33-6.59A.93.93,0,0,0,94.14,75.18Z" transform="translate(-33.19 -46.8)"/><path class="j" d="M89,78.33c-7,7.54-8.53,13.41-1.86,18.74-1.55-1.73-2.73-3.23-2.73-5.64C84.36,87.23,90.54,83.85,89,78.33Z" transform="translate(-33.19 -46.8)"/><path class="j" d="M88.57,77.62c1.08-3.14,4.12-4,5.57-2.44a.93.93,0,0,1,.28.9,4.73,4.73,0,0,0-2.67,5.36A4.68,4.68,0,0,0,90.66,84c-.1,1.58.89,3,2,4.49C87.52,86.05,87.3,81.31,88.57,77.62Z" transform="translate(-33.19 -46.8)"/><path class="k" d="M98.49,74.76c-4.09,2-9.13,5.19-9.38,9.09-.24,3.64,3.54,6.19,4,8.77a2.44,2.44,0,0,1-2.34,2.72,1.66,1.66,0,0,0,1-2.24c-.92-2.41-7-3.43-7.38-8.68s7.9-10.57,11-12.06C96.06,72.39,98.49,74.76,98.49,74.76Z" transform="translate(-33.19 -46.8)"/><path class="j" d="M89,90.53c-5-1.22-7.9-4.52-7.65-7.77.32-4.06,4.69-7.58,7-8.69.81.15,5.4,2.05,5.4,2.05s-9.22,2.87-9.25,8C84.44,87.43,89,90.53,89,90.53Z" transform="translate(-33.19 -46.8)"/><circle class="h" cx="71.31" cy="49.07" r="4.28"/><path class="h" d="M104,104.54a5.76,5.76,0,0,0,.59,0,4.88,4.88,0,0,0,4.55-4.62l.95-18a4.89,4.89,0,1,0-9.77-.52l-1,18A4.9,4.9,0,0,0,104,104.54Z" transform="translate(-33.19 -46.8)"/><circle class="h" cx="96.66" cy="169.59" r="4.28" transform="translate(-130.25 146.82) rotate(-67.39)"/><circle class="h" cx="117.71" cy="169.59" r="4.28" transform="translate(-117.29 166.26) rotate(-67.39)"/><path class="h" d="M86.53,102.07A3.11,3.11,0,1,0,89.64,99,3.11,3.11,0,0,0,86.53,102.07Z" transform="translate(-33.19 -46.8)"/><path class="h" d="M115.52,102.07A3.12,3.12,0,1,0,118.63,99,3.11,3.11,0,0,0,115.52,102.07Z" transform="translate(-33.19 -46.8)"/><path class="h" d="M87.44,104.28a7.11,7.11,0,0,1,2.1,5.25,27.72,27.72,0,0,0,1.77,9.91,43.39,43.39,0,0,0,4.18,9.23,14.15,14.15,0,0,1-.27,15.61c-1.6,2.33-4.42,5.05-6.42,11.2a33.81,33.81,0,0,0-1.66,8.59,10.92,10.92,0,0,0,2.81,8,5.8,5.8,0,0,0,4.22,1.81h23.48a4.45,4.45,0,0,0,3.55-1.67c1.75-2.28,2.55-5.79,2.55-11.18a33.12,33.12,0,0,0-2.21-13c-.6-1.66-1.31-3.49-2.14-5.79-2.66-7.36.44-13.64,1.28-18.58a6.87,6.87,0,0,0,1.55-12.78,6.49,6.49,0,0,1-3.11-3.26v0a2.18,2.18,0,0,1,1-2.74,3,3,0,0,0,1.2-1.13,3.11,3.11,0,0,0-1.06-4.27c-.24-.15-6-4.09-15.47-4.09h0c-10.86-.08-16.37,3.88-16.63,4a3.09,3.09,0,0,0-.7,4.91Z" transform="translate(-33.19 -46.8)"/><path class="c" d="M86.07,102.19a3.56,3.56,0,0,1,2.11-3.47,40.18,40.18,0,0,1,6.7-2.2c2.12.63,12.05,18.71,17.64,17.89,5-.74,1.57-16.65-1.89-18.54a33.22,33.22,0,0,1,8.25,2.31,3.38,3.38,0,0,1,.5.27h0l.63.31a3.6,3.6,0,0,1,.25,6.52.4.4,0,0,0-.16.22c-.08.26-.24.79-.3,1.06a1.4,1.4,0,0,0,.09,1.09,5.44,5.44,0,0,0,2.58,2.67,7.57,7.57,0,0,1-1.11,14.05c-.21,1.06-.5,2.17-.81,3.33a25.24,25.24,0,0,0-.43,11.27.67.67,0,0,1-.14.56.7.7,0,0,1-.53.24H96.55a.64.64,0,0,1-.53-.26.67.67,0,0,1-.13-.58c.67-2.68,1-5.5-.12-8.05a15.07,15.07,0,0,0-.93-1.72,43.28,43.28,0,0,1-4.26-9.33,30,30,0,0,1-1.82-8.94v0c0-.11,0-.18,0-.22,0-1.86-.92-3.44-1.53-5.2h0A10,10,0,0,1,86.07,102.19Z" transform="translate(-33.19 -46.8)"/><path class="i" d="M102.89,121.63H122.2a6.89,6.89,0,0,0,3.73-1.1,7.67,7.67,0,0,1-6.83,4.19H103.55a6.85,6.85,0,0,1-6.87-6.82h0c0-.06,0-.11,0-.16A6.89,6.89,0,0,0,102.89,121.63Z" transform="translate(-33.19 -46.8)"/><path d="M184.88,178l-.85-2.71a19.63,19.63,0,0,0-18.82-13.84l-39.4,1.13a1.49,1.49,0,0,1-1.52-1.5h0c0-8.7-1.59-11.34-4.38-19a15.75,15.75,0,0,1-.64-2.26H96.69a13.32,13.32,0,0,1-1.93,4.2c-1.63,2.37-4.47,5.17-6.48,11.35a34.39,34.39,0,0,0-1.68,8.74,11.82,11.82,0,0,0,2.05,7.27l0,0a9.54,9.54,0,0,0,7.79,4.06h45.33a.63.63,0,0,1,.55.91l-.78,1.49a.78.78,0,0,0,.69,1.14h41.89A.78.78,0,0,0,184.88,178Z" transform="translate(-33.19 -46.8)"/><path class="l" d="M110.81,139.77a.36.36,0,0,0-.31.39v5.56a.35.35,0,0,0,.31.39h2.48a.36.36,0,0,0,.32-.39v-5.56a.36.36,0,0,0-.32-.39Zm0-1.16h2.48a1.44,1.44,0,0,1,1.26,1.55v5.56a1.44,1.44,0,0,1-1.26,1.56h-2.48a1.43,1.43,0,0,1-1.25-1.56v-5.56a1.43,1.43,0,0,1,1.25-1.55Z" transform="translate(-33.19 -46.8)"/><path class="k" d="M117.31,51.68c2.33-1.6,8-1.11,8.31,6C118.73,58.15,117.31,51.68,117.31,51.68Z" transform="translate(-33.19 -46.8)"/><path class="j" d="M117.31,52a6,6,0,0,1,7.78,5.62c-2.39-6.79-7.7-4.54-7.7-4.54Z" transform="translate(-33.19 -46.8)"/><path class="j" d="M119.33,54.63c.13-5.71-7.13-7.83-13-7.83C91.78,46.8,81.62,63,87.7,74.22,96.43,90.29,119,70.09,119.33,54.63Z" transform="translate(-33.19 -46.8)"/><path class="h" d="M89,66.77c0-8.91,8-16.13,17.86-16.13a19.22,19.22,0,0,1,4.35.5,18.27,18.27,0,0,1,10.63,6.92,16.14,16.14,0,0,1,2.55,5.64,30.91,30.91,0,0,1,.48,7.7,65.83,65.83,0,0,1,0,7.3,15,15,0,0,1-6.56,10.75c-4.24,2.79-9.75,1.51-14.09-.38a27.16,27.16,0,0,1-10.75-8.55A23.32,23.32,0,0,1,89,67.21C89,67.07,89,66.92,89,66.77Z" transform="translate(-33.19 -46.8)"/><path class="i" d="M109.5,81.23s1.1,1.38,4,1.38,3.94-1.32,4-1.39a.78.78,0,0,1,1.25.93c-.06.09-1.53,2-5.25,2s-5.18-1.93-5.24-2a.77.77,0,0,1,.16-1.08A.78.78,0,0,1,109.5,81.23Z" transform="translate(-33.19 -46.8)"/><path class="i" d="M103.2,69.7c1.58-2,4.53-1.42,4.65-1.39a.5.5,0,1,1-.19,1s-2.47-.47-3.67,1a.48.48,0,0,1-.39.19.5.5,0,0,1-.32-.11A.52.52,0,0,1,103.2,69.7Z" transform="translate(-33.19 -46.8)"/><path class="i" d="M119.33,69.3a.51.51,0,0,1-.2-1c.13,0,3.07-.59,4.65,1.39a.5.5,0,0,1-.08.71.45.45,0,0,1-.31.11.5.5,0,0,1-.4-.19C121.8,68.83,119.35,69.29,119.33,69.3Z" transform="translate(-33.19 -46.8)"/><path class="i" d="M121.61,72.73V74a1.05,1.05,0,0,1-1,1.06h0a1,1,0,0,1-1-1.06V72.73a1,1,0,1,1,2.08,0Z" transform="translate(-33.19 -46.8)"/><path class="i" d="M106.42,75h0a1,1,0,0,1-1-1.06V72.73a1,1,0,1,1,2.08,0V74A1,1,0,0,1,106.42,75Z" transform="translate(-33.19 -46.8)"/><path class="j" d="M119.33,54.63c-1,3,5.35,6.28,5.12,11.76s-1.88,6.78-1.52,9.5,3.69,5.22,3.21,7.78-4.7,6.52-2.59,10.57a5.07,5.07,0,0,1,1.36-5.48c2.24-2.42,4-3.75,3.69-6.22s-2.43-4.54-2.27-7.48C126.54,71.31,132.78,55,119.33,54.63Z" transform="translate(-33.19 -46.8)"/><path class="k" d="M87.22,60.27c7.33-15.33,29-12.33,32.11-5.64-11.07-7.47-27.5-2.51-30.62,8.64a12.63,12.63,0,0,0,1.66,10.34c-1.08,0-2.65,0-3.25-.56A16.75,16.75,0,0,1,87.22,60.27Z" transform="translate(-33.19 -46.8)"/><path class="j" d="M95.41,72.36c.65,0,3.08,2.4,3.08,2.4a30.78,30.78,0,0,0-5.94,3.68,24.58,24.58,0,0,1-3.52.28,16.37,16.37,0,0,1-2.09-.13A29.93,29.93,0,0,1,95.41,72.36Z" transform="translate(-33.19 -46.8)"/><path class="j" d="M87.7,74.22A14.23,14.23,0,0,1,86.41,71a9.64,9.64,0,0,0,3.65.13l1.46,3.25-3.6.26C87.84,74.49,87.77,74.36,87.7,74.22Z" transform="translate(-33.19 -46.8)"/><path class="k" d="M93.27,72c-3.39.82-6.29.87-6.56,0-.15-.47-.3-1-.3-1s-5,.62-3.3,3.92,9.69,2.61,15.62.31A7.52,7.52,0,0,0,93.27,72Z" transform="translate(-33.19 -46.8)"/><path class="k" d="M119.33,54.63C110.94,46.94,92,56.21,89.79,70.85c1.15,2.79,4.32,3.77,8.16,3.23C107.46,72.73,113.49,59.68,119.33,54.63Z" transform="translate(-33.19 -46.8)"/><path class="j" d="M119.33,54.63c-2.12-4.09-9.15-6.35-16.24-5.09C95,51,88.49,59.86,88.31,65.78s2.16,6.74,3.27,7.27c-2.53-3,1.78-9.28,10.65-14.73,3.55-2.18,6.18-5.19,9.61-5.57C116.9,52.32,119.33,54.63,119.33,54.63Z" transform="translate(-33.19 -46.8)"/><path class="j" d="M88.31,65.78a10.55,10.55,0,0,1,.4-2.51A7.79,7.79,0,0,0,91,70a3.44,3.44,0,0,0,.6,3C90.47,72.52,88.13,71.69,88.31,65.78Z" transform="translate(-33.19 -46.8)"/><path class="k" d="M87.22,60.27c7.33-15.33,29-12.33,32.11-5.64-11.07-7.47-27.5-2.51-30.62,8.64C87.06,63.46,86.64,62,87.22,60.27Z" transform="translate(-33.19 -46.8)"/><path class="j" d="M119.33,54.63c-1,6.64-13,20.66-20.19,21-8.07.42-12.55-3.3-10.83-9.88.1,4.92,2.85,7.32,8.23,7.32,5.68,0,9.51-9.08,12.52-13.16C112.49,55.27,117.74,54,119.33,54.63Z" transform="translate(-33.19 -46.8)"/><path class="h" d="M86.5,102.05a3.22,3.22,0,0,0,.11.81l9.11,32.74a11.39,11.39,0,0,0,11,8.42h28.73a3.11,3.11,0,0,0,0-6.22H106.7a5.16,5.16,0,0,1-5-3.81l-9.11-32.74a3.11,3.11,0,0,0-6.12.8Z" transform="translate(-33.19 -46.8)"/><path class="h" d="M143.52,132.53a8.06,8.06,0,0,1,2.49,1.28l2.62,2a1.13,1.13,0,0,1,.22,1.59l-.13.15a.7.7,0,0,0-.23.56.73.73,0,0,0,.28.55l.06,0a1.13,1.13,0,0,1,.22,1.59,1.15,1.15,0,0,1-1.43.33l-.17-.11a.24.24,0,0,0-.23,0,.22.22,0,0,0-.13.2,1.08,1.08,0,0,1-.23.63,1.13,1.13,0,0,1-1.59.21.3.3,0,0,0-.26,0,.27.27,0,0,0-.15.21.9.9,0,0,1-.19.48.93.93,0,0,1-1.31.14l-1.84-1.46a1,1,0,0,0-1.46.19c-1.64,2.21-3.8,3.42-5.37,2.82-2-.76-2.29-4.13-.67-7.52C137.12,129.86,137.24,130.57,143.52,132.53Z" transform="translate(-33.19 -46.8)"/><path class="i" d="M92.28,127.34l-.8-3a.53.53,0,0,1,.37-.65l.11,0L99,121.76l.1,0a.53.53,0,0,1,.65.37l.8,3a.53.53,0,0,1-.37.65l-.11,0L93,127.69l-.12,0A.53.53,0,0,1,92.28,127.34Z" transform="translate(-33.19 -46.8)"/><path class="c" d="M86.1,103a3.66,3.66,0,1,1,7.07-1.88L99,121.76,92,123.64Z" transform="translate(-33.19 -46.8)"/><path class="e" d="M224.34,97.88h-42c-1.78.15-2.81,1.76-3.23,3.5L171.82,140l-1.41-.54,7.31-38.62c.41-1.72,1.44-3.34,3.23-3.5h42a6.68,6.68,0,0,1,2,.66A2,2,0,0,0,224.34,97.88Z" transform="translate(-33.19 -46.8)"/><path class="d" d="M170.35,140.76a4.26,4.26,0,0,1,.06-1.3l1.41.54,7.31-38.62c.42-1.76,1.45-3.35,3.23-3.5h42A2,2,0,0,1,225,98c1.27.65,1.46,2,1.26,3.38L218.92,140c-.41,1.73-1.44,4.34-3.23,4.5l-77.79.32c-.52,0-.52-2.23-.52-2.52V141a.21.21,0,0,1,.21-.21Z" transform="translate(-33.19 -46.8)"/><path class="e" d="M54.47,114.3a5.88,5.88,0,0,1,1.7.9,1.55,1.55,0,0,0,1.56.2,3.42,3.42,0,0,1,2.5-.11,3.47,3.47,0,0,1,2.29,4,1.52,1.52,0,0,0,.33,1.34,5.37,5.37,0,0,1,1,5.19c-.08.23-.18.46-.28.68a1.54,1.54,0,0,0,.2,1.69,4,4,0,1,1-7,2.06,1.55,1.55,0,0,0-.75-1.54,5.42,5.42,0,0,1-2-2.1,1.54,1.54,0,0,0-1.39-.83,5.92,5.92,0,1,1,1.82-11.52Z" transform="translate(-33.19 -46.8)"/><path class="i" d="M68.78,140.81a1.6,1.6,0,0,1-1.55-.95.46.46,0,0,1,.24-.62.47.47,0,0,1,.62.24c0,.12.2.46.89.38a4.63,4.63,0,0,0,3.39-3.05,2.6,2.6,0,0,0-.31-2.05,1.86,1.86,0,0,0-1.48-.53c-.39,0-1.59,0-1.59,2.35a.47.47,0,0,1-.94,0c0-2.86,1.59-3.29,2.53-3.29a2.73,2.73,0,0,1,2.2.87A3.42,3.42,0,0,1,73.3,137a5.5,5.5,0,0,1-4.2,3.82Z" transform="translate(-33.19 -46.8)"/><path class="c" d="M55.89,142.5a2.38,2.38,0,0,0,1.45.48H64a2.48,2.48,0,0,0,1.46-.48,8,8,0,0,0,3.26-6.44,7.66,7.66,0,0,0-.29-2.1.91.91,0,0,0-.88-.67H53.79a.92.92,0,0,0-.88.67,7.66,7.66,0,0,0-.29,2.1A8,8,0,0,0,55.89,142.5Z" transform="translate(-33.19 -46.8)"/><path class="i" d="M50.15,142.41a.26.26,0,0,0-.25.16.27.27,0,0,0,0,.3l.33.41a3.78,3.78,0,0,0,2.87,1.32h15A3.78,3.78,0,0,0,71,143.28c.11-.13.23-.27.33-.41a.29.29,0,0,0,0-.3.29.29,0,0,0-.26-.16Z" transform="translate(-33.19 -46.8)"/><path class="d" d="M64.37,236.06a.68.68,0,0,0,.65.83h5.31a.66.66,0,0,0,.63-.49L96.3,148.18H85.85Z" transform="translate(-33.19 -46.8)"/><path class="e" d="M130.21,236.88a.66.66,0,0,0,.51-.24.67.67,0,0,0,.14-.56l-18-87.9H102.39l21.86,88.2a.65.65,0,0,0,.64.5h5.32Z" transform="translate(-33.19 -46.8)"/><path class="d" d="M100.41,143.1l23.84,93.28a.65.65,0,0,0,.64.5h2.65L103.48,143.1Z" transform="translate(-33.19 -46.8)"/><path class="e" d="M64.37,236.06a.68.68,0,0,0,.65.83h2.32l21.6-88.71H85.85Z" transform="translate(-33.19 -46.8)"/><rect class="e" y="97.23" width="234.09" height="4.16" rx="0.59"/><path class="d" d="M111.52,144v4.15H33.78a.59.59,0,0,1-.59-.58v-3a.59.59,0,0,1,.59-.58Z" transform="translate(-33.19 -46.8)"/><path class="m" d="M233.81,128.33a.7.7,0,0,0-.5-.54,1,1,0,0,0-.38-.58.69.69,0,0,0,.25-.7.86.86,0,0,0-1.08-.42,1.11,1.11,0,0,0,.52-1.08,1.37,1.37,0,0,0-1.73-.8,1.82,1.82,0,0,0-.7.29l0-.1a1.16,1.16,0,0,0-.68-1.43c-.51-.09-1,.39-1.15,1.08a1.15,1.15,0,0,0,.67,1.43.78.78,0,0,0,.53-.11.65.65,0,0,0,0,.24.68.68,0,0,0,.14.31,1.92,1.92,0,0,0-.68.32,2.1,2.1,0,0,0-.27.24,1.15,1.15,0,0,0-.27.14,1.33,1.33,0,0,0-.6-.81c.12-.59-.4-1.23-1.19-1.45a1.8,1.8,0,0,0-1.29.1,1.65,1.65,0,0,0-1.48.62,1.92,1.92,0,0,0-.38.66.36.36,0,0,1,0-.09,1,1,0,1,0-1.69.84,1.57,1.57,0,0,0,.35.48.89.89,0,0,0-.08.57.9.9,0,0,0,.08.28,1.69,1.69,0,0,0-1.5-.06,1.54,1.54,0,0,0-1.08,1.4,1.94,1.94,0,0,0-.34,0,.9.9,0,0,0-.67-.17,1,1,0,0,0-.05-.35c1-.25,1.68-1.05,1.5-1.79a1.72,1.72,0,0,0-2.18-.89,2.5,2.5,0,0,0-.84.39s0-.08,0-.12a1.4,1.4,0,0,0-.91-1.72c-.63-.09-1.23.53-1.36,1.39s.29,1.63.91,1.72a1,1,0,0,0,.65-.16.93.93,0,0,0,0,.29,1.16,1.16,0,0,0,.2.4,2.13,2.13,0,0,0-.92.85.55.55,0,0,0-.41.35.56.56,0,0,0,.14.54,1,1,0,0,0,.41.84h0a.85.85,0,0,0-.52.68,1,1,0,0,0-.33-.13.88.88,0,0,0-.45.06,1.25,1.25,0,0,0,0-.47,1.21,1.21,0,0,0,.47-1.37,1.25,1.25,0,0,0-1.49-.5,1.27,1.27,0,0,0,.84-.85c.17-.75-.52-1.55-1.54-1.78a1.7,1.7,0,0,0-2.16.91,1.29,1.29,0,0,0,.42,1.18,1.43,1.43,0,0,0-.37,1.07,1.21,1.21,0,0,0,.8,1.21,1.46,1.46,0,0,0-.35,1.71,1.12,1.12,0,0,0,.4.38s0,0,0,0a.29.29,0,0,0,0,.16h-.06a.53.53,0,0,0-.34.36.56.56,0,0,0-.1-.15,1.6,1.6,0,0,0-2.28,2,1,1,0,0,0,.62.29.33.33,0,0,0,0,.17c.09.41.62.64,1.19.52a1.46,1.46,0,0,0,.52-.24.76.76,0,0,0,.61.29.82.82,0,0,0,.66-.45.57.57,0,0,0,.28.31.8.8,0,0,0,.91-.31.57.57,0,0,0,.28.22h0c-.15.32.08.74.52.94a.78.78,0,0,0,1.05-.22.75.75,0,0,0-.48-.91,1.16,1.16,0,0,0,.48-.66.73.73,0,0,0,.26-.2,1,1,0,0,0-.11-1.22,1.53,1.53,0,0,0,.23-.48,1.13,1.13,0,0,0,.56-1.18.68.68,0,0,0-.13-.27l.15-.06.06,0a.43.43,0,0,1,0,.05c-.08.38.07.74.35.8a.54.54,0,0,0,.55-.32,2,2,0,0,0,.44,1,1.5,1.5,0,0,0,1.7.58.26.26,0,0,0,.13.08c.28.1.61-.12.75-.5,0,0,0,0,0-.06v0a.46.46,0,1,0,.76-.44c-.17-.29-.47-.42-.68-.3a.37.37,0,0,0-.12.13.48.48,0,0,0-.24-.23.55.55,0,0,0-.18,0,1.89,1.89,0,0,0-.34-.68,2.39,2.39,0,0,0,.54-.15.47.47,0,0,0,.92.22.49.49,0,0,0,.23.11h0c-.05.24.17.48.5.55a.67.67,0,0,0,.51-.08.77.77,0,0,0,.21.14c.57.26,1.33-.17,1.68-1a.65.65,0,0,0,0-.13.36.36,0,0,0,0,.09,1.16,1.16,0,0,0,1.42.73.66.66,0,0,0,.17-.12.93.93,0,0,0,.36.71,1,1,0,0,0,1,0,.41.41,0,0,0,.34.25c.23,0,.42-.25.42-.56a.75.75,0,0,0-.05-.26l0,0,.06-.1s0,.05,0,.08c.17.66.7,1.09,1.18,1a1,1,0,0,0,.59-1.23.77.77,0,0,0,0-.26.5.5,0,0,0,0-.13,1.54,1.54,0,0,0,.17-.19.3.3,0,0,0,0-.08s0,0,0,.06c.12.44.47.72.79.63a.55.55,0,0,0,.37-.44s0,0,.07-.06,0,0,0-.06a1.11,1.11,0,0,0,1.48-.24.8.8,0,0,0,.07-.34.48.48,0,0,0,.31-.24.6.6,0,0,0-.08-.57.51.51,0,0,0,.16-.09.68.68,0,0,0,0-.9.22.22,0,0,0,0-.08A.83.83,0,0,0,233.81,128.33Z" transform="translate(-33.19 -46.8)"/><path class="c" d="M217.48,130a.85.85,0,0,0-.86.89,20.82,20.82,0,0,0,3.56,11.27,2.82,2.82,0,0,0,2.31,1.19h12a2.85,2.85,0,0,0,2.32-1.19,20.9,20.9,0,0,0,3.55-11.27.86.86,0,0,0-.24-.63.84.84,0,0,0-.62-.26Z" transform="translate(-33.19 -46.8)"/><path class="i" d="M216.73,132.45H240.3c0-.52.09-1,.11-1.56a.87.87,0,0,0-.24-.63.84.84,0,0,0-.62-.26H217.48a.85.85,0,0,0-.62.26.87.87,0,0,0-.24.63C216.64,131.42,216.68,131.93,216.73,132.45Z" transform="translate(-33.19 -46.8)"/><path class="i" d="M216.6,140.2a.27.27,0,0,0-.21.12.25.25,0,0,0,0,.25,19.82,19.82,0,0,0,1.46,2.74,1.54,1.54,0,0,0,1.31.72H237.9a1.56,1.56,0,0,0,1.31-.72,21,21,0,0,0,1.46-2.74.31.31,0,0,0,0-.25.27.27,0,0,0-.22-.12Z" transform="translate(-33.19 -46.8)"/><path class="m" d="M253,144.1a1.9,1.9,0,0,0-2.44-1,3.18,3.18,0,0,0-.54.21,1.35,1.35,0,0,0-.14-.67c1.06-.48,1.64-1.49,1.3-2.26a1.2,1.2,0,0,0-.53-.56.91.91,0,0,0,0-.49,1.4,1.4,0,0,0-1.53-1,1.6,1.6,0,0,0,.79-1.91,1.2,1.2,0,0,0-.74-.61,1.77,1.77,0,0,0-1.54-.2,1.7,1.7,0,0,0-.36-.35,1.77,1.77,0,0,0,.52-1.38,1.3,1.3,0,0,0,1.17.86,1.18,1.18,0,0,0,1.42-.79c0-.51-.44-1-1.13-1.09a1.36,1.36,0,0,0,.09-1.8,1,1,0,0,0-.95-.19.6.6,0,0,0-.07-.44.92.92,0,0,0-1.23-.17,1,1,0,0,0-.16-.47.78.78,0,0,0,0-.89.68.68,0,0,0-.63-.22,1.13,1.13,0,0,0-.19-.53,1.17,1.17,0,0,0-.55-.43l0,0c.35-.08.59-.33.55-.59a.64.64,0,0,0-.78-.41.53.53,0,0,0-.18,0,.43.43,0,0,0,0-.23c.37-.12.6-.44.51-.71a.63.63,0,0,0-.83-.28.87.87,0,0,0-.3.17v0a.51.51,0,0,0-.38-.61c-.24,0-.45.23-.47.55a.52.52,0,0,0,.38.62.41.41,0,0,0,.24-.08.37.37,0,0,0,0,.11.46.46,0,0,0,.09.15l-.15.1a.59.59,0,0,0-.15.81.52.52,0,0,0,.64,0,.42.42,0,0,0,.13.22h0s0,0,0,.06a2.52,2.52,0,0,0-.69.15.49.49,0,0,0-.13-.12,1.27,1.27,0,0,0-.06-.28,1,1,0,0,0-.53-.51.86.86,0,0,0,.06-.23.37.37,0,0,0,.08-.18.31.31,0,0,0,0-.21,1.29,1.29,0,0,0-.32-.94,1.3,1.3,0,0,0-1-.38.93.93,0,0,0-.05-.1,1.43,1.43,0,0,0-2-.15,2.23,2.23,0,0,0-.57.53.38.38,0,0,0,0-.1,1.65,1.65,0,0,0-.27-.68,1.19,1.19,0,0,0,.14-.93,1.7,1.7,0,0,0-2.22-.76,2.16,2.16,0,0,0-.82.44s0-.08,0-.12c.08-.87-.38-1.61-1-1.66s-1.2.6-1.27,1.46a1.73,1.73,0,0,0,.49,1.43,1.92,1.92,0,0,0-.93.22,2,2,0,0,0-1.47-1,.8.8,0,0,0,0-.68,1.2,1.2,0,0,0-1.65-.21,1.64,1.64,0,0,0-.51.42v-.09c-.08-.61-.5-1.06-.94-1a1,1,0,0,0-.68,1.21c.07.61.49,1.06.94,1a.68.68,0,0,0,.41-.23.7.7,0,0,0,.08.2.66.66,0,0,0,.21.23,1.79,1.79,0,0,0-.23.25,1.15,1.15,0,0,0,0,1.58.88.88,0,0,0,.88,0,1.56,1.56,0,0,0,.52.63,1.15,1.15,0,0,0,.34.64,2.4,2.4,0,0,0-.63.69,1.09,1.09,0,0,0,0-.18,1.21,1.21,0,0,0-.81-.9.71.71,0,0,0-.63-.28.67.67,0,0,0-.29.12.8.8,0,0,0-.24-.56,1.2,1.2,0,0,0-1.64.29,1.55,1.55,0,0,0-.45,1,1,1,0,0,0-.24.08.94.94,0,0,0-.33.24v-.05c0-.38-.26-.67-.54-.65s-.48.33-.46.7.27.67.54.66a.38.38,0,0,0,.26-.13.5.5,0,0,0,0,.13.57.57,0,0,0,.12.15,1,1,0,0,0-.15.14.72.72,0,0,0-.06,1,.61.61,0,0,0,.75-.07.58.58,0,0,0,.18.23h0a.63.63,0,0,0,.22.82.62.62,0,0,0,.84,0,.61.61,0,0,0-.19-.8.79.79,0,0,0,.54-.54,2.35,2.35,0,0,0,1,.05,2.08,2.08,0,0,0,1.35-.75,1.15,1.15,0,0,0,.17.81,1,1,0,0,0,.21.21,2.08,2.08,0,0,0-1.41.86,1.4,1.4,0,1,0,2.14,1.6l.08-.13s0,.07,0,.1c.2.81.84,1.35,1.43,1.21a1.36,1.36,0,0,0,.71-1.73c-.2-.81-.84-1.35-1.43-1.2a.76.76,0,0,0-.38.21,1.16,1.16,0,0,0-.33-.65,2.21,2.21,0,0,0,1.25-.39l.17,0c0,.84.39,1.55,1,1.61h.1a2.15,2.15,0,0,0,2.24.47l.12,0a1.34,1.34,0,0,0,1-.13.79.79,0,0,0,.72,0l.11-.09a2.14,2.14,0,0,0,.17.3,2,2,0,0,0-1,.52,1.42,1.42,0,0,0-1.54-.09,1.28,1.28,0,0,0-.83,1.54,1.19,1.19,0,0,0,1.47.41,1.9,1.9,0,0,0,.1.73,1.52,1.52,0,0,0-.85,1.66,1.72,1.72,0,0,0,2.25.76,1.48,1.48,0,0,0,.29-.12v0a1.1,1.1,0,0,0,.35.66,2.73,2.73,0,0,0,.21,2.91,1.31,1.31,0,0,0,1.29-.12,1.54,1.54,0,0,0-.17.19,1.41,1.41,0,0,0-.1,1.94.93.93,0,0,0,.54.19,1.71,1.71,0,0,0-.74.59.69.69,0,0,0-.25,0,.71.71,0,0,0-.37.12,1,1,0,0,0-.26-.7,1.74,1.74,0,0,0-2.41,2.27,1.5,1.5,0,0,0,2-.25l.1-.11a.34.34,0,0,0,0,.1c.05.76.54,1.34,1.09,1.3a1.16,1.16,0,0,0,.91-1.16,1.94,1.94,0,0,0,.76,0,2,2,0,0,0,.77-.33.8.8,0,0,0,.28.65,1.84,1.84,0,0,0-.72.65,1.54,1.54,0,0,0-.14,1.75,2.63,2.63,0,0,0-.48.06c-1.09.24-1.83,1.09-1.65,1.89a1.37,1.37,0,0,0,1,.94,1.49,1.49,0,0,0-.15,1.21c.19.72.78,1.19,1.3,1.05l.14-.07h.1a1.71,1.71,0,0,0,.18,1.24,2,2,0,0,0,0,.35.76.76,0,0,0-.51.45,1.53,1.53,0,0,0,.1-.54c0-.61-.35-1.11-.8-1.11a.68.68,0,0,0-.31.08.78.78,0,0,0-.16-.58A1.21,1.21,0,0,0,239,153a2.72,2.72,0,0,0-.24.24,1.33,1.33,0,0,0-1,1.33,1.46,1.46,0,0,0,1.81.88,2.14,2.14,0,0,0,.83-.34.81.81,0,0,0,.68.53.79.79,0,0,0,.66-.47,1.3,1.3,0,0,1-1.85,1.28l0,0a1.08,1.08,0,0,0-.91.92,1,1,0,0,0,.77.9,1,1,0,0,0,.18.17,1.34,1.34,0,0,0,1.67-.35,1.24,1.24,0,0,0,.15.73,1.42,1.42,0,0,0-1.33.42,1.21,1.21,0,0,0-.29,1.65.8.8,0,0,0,.21.15.9.9,0,0,0-.07.48,1.39,1.39,0,0,0-1.41.88c-.17.69.45,1.44,1.39,1.68s1.85-.13,2-.82c0,0,0,0,0-.05a.67.67,0,0,0,.31.35,1.12,1.12,0,0,0,.31.53l-.2,0a1.14,1.14,0,0,0-1.26.44.41.41,0,0,0-.22,0,.46.46,0,0,0-.29.44,2.12,2.12,0,0,0-.81.28,1.58,1.58,0,0,0-.87,2,1.28,1.28,0,0,0,1.27.52.55.55,0,0,0-.08.68.64.64,0,0,0,.86,0h0l0,0v0a.37.37,0,0,0,0,.18,2.29,2.29,0,0,0-.07.28.53.53,0,0,0-.32.45c0,.25.25.46.57.51a.68.68,0,0,0,.5.27h.08a.89.89,0,0,0-.35.22.64.64,0,0,0-.14.89.46.46,0,0,0,.41.12,1,1,0,0,0,0,.45.72.72,0,0,0-.53.61.77.77,0,0,0-.12-.24,1.34,1.34,0,0,0-2,1.6,1.08,1.08,0,0,0,1.45,0,1.14,1.14,0,0,0,.23.2.87.87,0,0,0,.74.78.85.85,0,0,0,.73-.71.58.58,0,0,0,.17.18.57.57,0,0,0,.62-.11.47.47,0,0,0,.24.35.53.53,0,0,0,.33,0l0,0a.8.8,0,0,0,1-.11h0a.62.62,0,0,0,.24.27h0c-.22.29-.06.77.34,1.07a.81.81,0,0,0,1.12,0,.8.8,0,0,0-.3-1c.5-.22.79-.67.66-1a.73.73,0,0,0-.5-.45.25.25,0,0,0,.08-.12c.07-.23-.12-.49-.42-.59a.63.63,0,0,0,.19-.81.52.52,0,0,0-.47-.16v0a.83.83,0,0,0-.52-.58.36.36,0,0,0-.1-.15.44.44,0,0,0-.3-.11.61.61,0,0,0-.25-.41.65.65,0,0,0,.45-.71.48.48,0,0,0-.27-.27s0,0,0,0a.76.76,0,0,0-.46-.43h0a1.14,1.14,0,0,0,.28-.65.89.89,0,0,0-.53-1,.71.71,0,0,0-.37-.4.7.7,0,0,0,.35-.77,1,1,0,0,0,.25,0,.71.71,0,0,0,.12.68.64.64,0,0,0,.46.21,1.62,1.62,0,0,0,.37,1.31,1.32,1.32,0,0,0,1.74.47,1.14,1.14,0,0,0,.19-1.35,1,1,0,0,0,.6-.68,1.21,1.21,0,0,0,.64-1.07c0-.58-.59-1-1.33-1.15a.34.34,0,0,0,0-.1.81.81,0,0,0-.62-.53,1.45,1.45,0,0,0,1.06-1.52,1.16,1.16,0,0,0-.73-.78l.19,0c.62.07,1.17-.24,1.22-.7s-.38-.85-1-.94a1.18,1.18,0,0,0,.07-1.56.87.87,0,0,0-.63-.2.19.19,0,0,0,0-.08.88.88,0,0,0-.24-.36h.08a.7.7,0,0,0,.45-.59.6.6,0,0,0,0-.44,1,1,0,0,0-.34-1.11,1.26,1.26,0,0,0,.19-.25.43.43,0,0,0,.25.13h0c-.07.27.18.55.54.63a.88.88,0,0,0,.36,0l.13.07a.92.92,0,0,0,1.24-.24.89.89,0,0,0-.56-1.08,1.06,1.06,0,0,0,.51-1.31,1.1,1.1,0,0,0-1.52-.18,1.89,1.89,0,0,0-.27.2,1,1,0,0,0-.13-.3.29.29,0,0,1,0-.09,1.1,1.1,0,0,0,.35-1.44.81.81,0,0,0-.3-.21,1.25,1.25,0,0,0-.35-.63v-.1a2,2,0,0,0,.64-.51h0a1.21,1.21,0,0,0,.53.41h0c-.28.61.18,1.42,1,1.81a1.5,1.5,0,0,0,2-.42,1.28,1.28,0,0,0-.46-1.45,1.18,1.18,0,0,0,.71-1.17,1,1,0,0,0-.26-.47,1.08,1.08,0,0,0,0-.4,1,1,0,0,0,.62-.33,1.53,1.53,0,0,0-.44-2C252.6,145.7,253.23,144.87,253,144.1Z" transform="translate(-33.19 -46.8)"/></svg>